<?xml version="1.0" encoding="UTF-8"?>
<svg width="31px" height="54px" viewBox="0 0 31 54" version="1.1" xmlns="http://www.w3.org/2000/svg" xmlns:xlink="http://www.w3.org/1999/xlink">
    <!-- Generator: Sketch 47.1 (45422) - http://www.bohemiancoding.com/sketch -->
    <title>Page 1</title>
    <desc>Created with Sketch.</desc>
    <defs></defs>
    <g id="Page-1" stroke="none" stroke-width="1" fill="none" fill-rule="evenodd">
        <g id="-" transform="translate(-1354.000000, -299.000000)" fill="#000000">
            <path d="M1380.762,299.476025 C1379.7034,299.476025 1378.6839,299.897905 1377.9339,300.647925 L1355.1719,323.409925 C1354.4219,324.159925 1354,325.175525 1354,326.238025 C1354,327.300525 1354.42187,328.316125 1355.1719,329.066125 L1377.9339,351.828125 C1379.4964,353.390625 1382.0316,353.390625 1383.5941,351.828125 C1385.1566,350.265625 1385.1566,347.730425 1383.5941,346.167925 C1380.29696,342.870788 1377.82411,340.397935 1376.17554,338.749366 C1373.39522,335.969046 1369.22474,331.798565 1363.6641,326.237925 L1383.5941,306.307925 C1384.3441,305.557925 1384.766,304.538425 1384.766,303.475925 C1384.766,302.417325 1384.34413,301.397825 1383.5941,300.647825 C1382.844,299.897925 1381.8245,299.476025 1380.762,299.476025 Z" id="Page-1"></path>
        </g>
    </g>
</svg>